PathFileType	4	(X/Y/Z)	 2.5Hzlow3min.trc
DataRate	CameraRate	NumFrames	NumMarkers	Units	OrigDataRate	OrigDataStartFrame	OrigNumFrames
200	200	9	35	m	200	626	1000
Frame#	Time	C7			LSH			RSH			MAN			RASI			LASI			HIPR			HIPL			RPSI			LPSI			COX			RTHI1			RTHI2			RTHI3			RTHI4			RSHA1			RSHA2			RSHA3			RSHA4			RHEEL			RMET5			RMET1			RTOE			LTHI1			LTHI2			LTHI3			LTHI4			LSHA1			LSHA2			LSHA3			LSHA4			LHEEL			LMET5			LMET1			LTOE			
		X1	Y1	Z1	X2	Y2	Z2	X3	Y3	Z3	X4	Y4	Z4	X5	Y5	Z5	X6	Y6	Z6	X7	Y7	Z7	X8	Y8	Z8	X9	Y9	Z9	X10	Y10	Z10	X11	Y11	Z11	X12	Y12	Z12	X13	Y13	Z13	X14	Y14	Z14	X15	Y15	Z15	X16	Y16	Z16	X17	Y17	Z17	X18	Y18	Z18	X19	Y19	Z19	X20	Y20	Z20	X21	Y21	Z21	X22	Y22	Z22	X23	Y23	Z23	X24	Y24	Z24	X25	Y25	Z25	X26	Y26	Z26	X27	Y27	Z27	X28	Y28	Z28	X29	Y29	Z29	X30	Y30	Z30	X31	Y31	Z31	X32	Y32	Z32	X33	Y33	Z33	X34	Y34	Z34	X35	Y35	Z35	
626	3.1300	-0.310104	1.426002	-0.557120	-0.245040	1.429998	-0.731011	-0.238789	1.390183	-0.393912	-0.182791	1.370526	-0.564553	-0.150288	0.984709	-0.458114	-0.165575	0.975578	-0.685642	-0.212367	1.035550	-0.428045	-0.222673	1.044446	-0.707970	-0.309968	1.019179	-0.511058	-0.316121	1.018574	-0.612019	-0.314916	1.028464	-0.559479	-0.233412	0.784369	-0.385027	-0.208742	0.730152	-0.383222	-0.148925	0.755146	-0.390679	-0.167609	0.813322	-0.394215	-0.261921	0.390366	-0.374114	-0.279936	0.351593	-0.380205	-0.222739	0.333189	-0.389546	-0.209431	0.371046	-0.387901	-0.370149	0.123491	-0.434256	-0.238706	0.036470	-0.381625	-0.210154	0.037551	-0.454326	-0.185594	0.029505	-0.444819	-0.259672	0.788116	-0.739126	-0.240912	0.729609	-0.740882	-0.178023	0.744240	-0.742533	-0.187653	0.803571	-0.741561	-0.317216	0.371081	-0.718247	-0.331424	0.333071	-0.712851	-0.272506	0.315699	-0.727022	-0.265685	0.359066	-0.730414	-0.404225	0.123101	-0.662457	-0.285774	0.040450	-0.729036	-0.240761	0.038879	-0.670458	-0.221117	0.029013	-0.676301	
627	3.1350	-0.310201	1.428566	-0.557166	-0.245098	1.432775	-0.730763	-0.239172	1.393235	-0.394203	-0.183141	1.373650	-0.564495	-0.150001	0.987199	-0.458409	-0.165331	0.978201	-0.685667	-0.211719	1.038325	-0.428252	-0.222086	1.047579	-0.707948	-0.309296	1.022373	-0.511087	-0.315533	1.021823	-0.612031	-0.314359	1.031648	-0.559495	-0.233437	0.786976	-0.385078	-0.208925	0.732676	-0.383234	-0.149035	0.757497	-0.390677	-0.167552	0.815725	-0.394243	-0.262014	0.392440	-0.374066	-0.279826	0.353552	-0.380113	-0.222514	0.335431	-0.389396	-0.209430	0.373373	-0.387914	-0.368823	0.125324	-0.433662	-0.237949	0.037389	-0.382215	-0.209684	0.038103	-0.454075	-0.185299	0.029828	-0.444350	-0.260004	0.791269	-0.739076	-0.241385	0.732730	-0.741039	-0.178472	0.747210	-0.742996	-0.187967	0.806561	-0.741860	-0.317259	0.373000	-0.718583	-0.331236	0.334910	-0.713187	-0.272232	0.317872	-0.727425	-0.265678	0.361288	-0.730831	-0.402934	0.124878	-0.662934	-0.285001	0.041361	-0.728948	-0.240355	0.039256	-0.670562	-0.220930	0.029238	-0.676579	
628	3.1400	-0.310283	1.430899	-0.557205	-0.245182	1.435298	-0.730545	-0.239536	1.396105	-0.394424	-0.183443	1.376484	-0.564453	-0.149759	0.989473	-0.458724	-0.165109	0.980585	-0.685689	-0.211100	1.040900	-0.428464	-0.221484	1.050432	-0.707940	-0.308675	1.025387	-0.511152	-0.314967	1.024871	-0.612101	-0.313838	1.034646	-0.559548	-0.233505	0.789343	-0.385181	-0.209137	0.734977	-0.383297	-0.149171	0.759641	-0.390687	-0.167539	0.817920	-0.394281	-0.262009	0.394299	-0.374032	-0.279633	0.355312	-0.380024	-0.222232	0.337449	-0.389326	-0.209348	0.375493	-0.388006	-0.367672	0.126965	-0.433055	-0.237206	0.038434	-0.382763	-0.209162	0.038794	-0.453806	-0.184965	0.030277	-0.443782	-0.260307	0.794161	-0.738966	-0.241809	0.735595	-0.741136	-0.178877	0.749958	-0.743448	-0.188259	0.809324	-0.742150	-0.317240	0.374705	-0.718902	-0.331011	0.336539	-0.713516	-0.271916	0.319820	-0.727766	-0.265608	0.363274	-0.731187	-0.401805	0.126466	-0.663371	-0.284288	0.042324	-0.728918	-0.239941	0.039737	-0.670753	-0.220710	0.029542	-0.676949	
629	3.1450	-0.310348	1.432992	-0.557236	-0.245287	1.437561	-0.730358	-0.239857	1.398769	-0.394587	-0.183700	1.379029	-0.564426	-0.149568	0.991527	-0.459046	-0.164916	0.982716	-0.685705	-0.210509	1.043281	-0.428687	-0.220883	1.052997	-0.707942	-0.308112	1.028198	-0.511249	-0.314430	1.027698	-0.612234	-0.313358	1.037434	-0.559638	-0.233599	0.791454	-0.385314	-0.209363	0.737040	-0.383414	-0.149320	0.761570	-0.390709	-0.167557	0.819887	-0.394333	-0.261908	0.395951	-0.373976	-0.279364	0.356865	-0.379939	-0.221900	0.339232	-0.389343	-0.209177	0.377384	-0.388135	-0.366714	0.128396	-0.432457	-0.236472	0.039600	-0.383236	-0.208588	0.039652	-0.453544	-0.184584	0.030918	-0.443161	-0.260571	0.796771	-0.738795	-0.242172	0.738177	-0.741170	-0.179229	0.752454	-0.743879	-0.188522	0.811824	-0.742421	-0.317167	0.376203	-0.719206	-0.330762	0.337970	-0.713841	-0.271573	0.321531	-0.728045	-0.265476	0.365023	-0.731470	-0.400867	0.127858	-0.663767	-0.283635	0.043328	-0.728951	-0.239503	0.040347	-0.671036	-0.220440	0.029964	-0.677421	
630	3.1500	-0.310389	1.434840	-0.557256	-0.245404	1.439557	-0.730202	-0.240100	1.401161	-0.394718	-0.183917	1.381275	-0.564416	-0.149431	0.993356	-0.459365	-0.164755	0.984587	-0.685710	-0.209960	1.045455	-0.428920	-0.220307	1.055258	-0.707949	-0.307607	1.030780	-0.511378	-0.313929	1.030289	-0.612430	-0.312925	1.039994	-0.559765	-0.233711	0.793309	-0.385483	-0.209590	0.738847	-0.383584	-0.149468	0.763277	-0.390747	-0.167598	0.821620	-0.394396	-0.261717	0.397400	-0.373893	-0.279021	0.358232	-0.379842	-0.221528	0.340774	-0.389453	-0.208925	0.379020	-0.388325	-0.365955	0.129594	-0.431901	-0.235729	0.040884	-0.383615	-0.207968	0.040698	-0.453317	-0.184144	0.031813	-0.442556	-0.260783	0.799066	-0.738571	-0.242466	0.740461	-0.741143	-0.179521	0.754667	-0.744280	-0.188742	0.814039	-0.742660	-0.317044	0.377503	-0.719486	-0.330496	0.339222	-0.714150	-0.271216	0.323019	-0.728254	-0.265292	0.366541	-0.731677	-0.400133	0.129066	-0.664132	-0.283045	0.044371	-0.729054	-0.239033	0.041114	-0.671405	-0.220107	0.030544	-0.678006	
631	3.1550	-0.310406	1.436436	-0.557267	-0.245527	1.441281	-0.730078	-0.240280	1.403327	-0.394769	-0.184085	1.383235	-0.564413	-0.149349	0.994954	-0.459675	-0.164628	0.986191	-0.685700	-0.209480	1.047405	-0.429159	-0.219782	1.057207	-0.707956	-0.307170	1.033118	-0.511525	-0.313469	1.032626	-0.612673	-0.312541	1.042308	-0.559917	-0.233822	0.794907	-0.385692	-0.209802	0.740402	-0.383804	-0.149603	0.764754	-0.390822	-0.167647	0.823116	-0.394472	-0.261441	0.398659	-0.373741	-0.278616	0.359406	-0.379736	-0.221129	0.342082	-0.389651	-0.208591	0.380388	-0.388579	-0.365392	0.130548	-0.431406	-0.234944	0.042282	-0.383913	-0.207312	0.041939	-0.453159	-0.183629	0.033000	-0.442068	-0.260937	0.801026	-0.738292	-0.242683	0.742419	-0.741060	-0.179743	0.756574	-0.744637	-0.188911	0.815953	-0.742863	-0.316866	0.378601	-0.719701	-0.330225	0.340302	-0.714433	-0.270865	0.324289	-0.728401	-0.265062	0.367824	-0.731803	-0.399605	0.130075	-0.664463	-0.282514	0.045462	-0.729227	-0.238531	0.042041	-0.671870	-0.219706	0.031319	-0.678696	
632	3.1600	-0.310401	1.437768	-0.557270	-0.245643	1.442728	-0.729980	-0.240371	1.405129	-0.394845	-0.184201	1.384897	-0.564413	-0.149319	0.996318	-0.459966	-0.164535	0.987529	-0.685672	-0.209075	1.049116	-0.429406	-0.219322	1.058839	-0.707966	-0.306807	1.035188	-0.511685	-0.313064	1.034691	-0.612970	-0.312208	1.044351	-0.560092	-0.233924	0.796230	-0.385942	-0.209988	0.741705	-0.384085	-0.149722	0.765992	-0.390948	-0.167692	0.824370	-0.394562	-0.261088	0.399709	-0.373524	-0.278141	0.360397	-0.379616	-0.220703	0.343156	-0.389938	-0.208195	0.381499	-0.388913	-0.365008	0.131268	-0.430995	-0.234104	0.043767	-0.384152	-0.206625	0.043361	-0.453110	-0.183025	0.034484	-0.441791	-0.261029	0.802637	-0.737972	-0.242821	0.744033	-0.740928	-0.179890	0.758158	-0.744939	-0.189023	0.817544	-0.743024	-0.316649	0.379533	-0.719872	-0.329959	0.341230	-0.714671	-0.270530	0.325339	-0.728478	-0.264795	0.368884	-0.731848	-0.399277	0.130879	-0.664740	-0.282030	0.046601	-0.729467	-0.237999	0.043135	-0.672413	-0.219235	0.032302	-0.679457	
633	3.1650	-0.310382	1.438839	-0.557270	-0.245752	1.443902	-0.729909	-0.240384	1.406568	-0.394935	-0.184268	1.386258	-0.564421	-0.149339	0.997454	-0.460229	-0.164482	0.988600	-0.685630	-0.208763	1.050581	-0.429651	-0.218940	1.060152	-0.707986	-0.306521	1.036973	-0.511855	-0.312722	1.036468	-0.613268	-0.311932	1.046110	-0.560276	-0.233998	0.797289	-0.386215	-0.210131	0.742753	-0.384424	-0.149812	0.766980	-0.391128	-0.167724	0.825372	-0.394677	-0.260634	0.400565	-0.373340	-0.277624	0.361211	-0.379543	-0.220256	0.344020	-0.390303	-0.207748	0.382355	-0.389320	-0.364776	0.131749	-0.430671	-0.233204	0.045304	-0.384370	-0.205927	0.044905	-0.453203	-0.182341	0.036194	-0.441792	-0.261058	0.803883	-0.737624	-0.242879	0.745293	-0.740755	-0.179964	0.759393	-0.745168	-0.189078	0.818791	-0.743133	-0.316399	0.380305	-0.719970	-0.329703	0.342014	-0.714848	-0.270226	0.326174	-0.728488	-0.264505	0.369725	-0.731820	-0.399132	0.131473	-0.664968	-0.281585	0.047777	-0.729769	-0.237450	0.044357	-0.673011	-0.218703	0.033483	-0.680254	
634	3.1700	-0.310354	1.439645	-0.557270	-0.245848	1.444800	-0.729862	-0.240337	1.407650	-0.395028	-0.184277	1.387305	-0.564432	-0.149402	0.998355	-0.460459	-0.164463	0.989409	-0.685574	-0.208578	1.051775	-0.429876	-0.218646	1.061144	-0.708016	-0.306310	1.038460	-0.512028	-0.312449	1.037939	-0.613550	-0.311720	1.047574	-0.560460	-0.234038	0.798090	-0.386509	-0.210225	0.743542	-0.384806	-0.149876	0.767723	-0.391384	-0.167735	0.826129	-0.394820	-0.260081	0.401206	-0.373249	-0.277053	0.361866	-0.379537	-0.219796	0.344679	-0.390734	-0.207262	0.382972	-0.389816	-0.364671	0.132011	-0.430430	-0.232259	0.046835	-0.384597	-0.205254	0.046475	-0.453452	-0.181616	0.038003	-0.442077	-0.261030	0.804752	-0.737266	-0.242862	0.746192	-0.740548	-0.179969	0.760270	-0.745311	-0.189079	0.819681	-0.743191	-0.316130	0.380922	-0.719993	-0.329462	0.342669	-0.714948	-0.269956	0.326822	-0.728432	-0.264209	0.370362	-0.731725	-0.399141	0.131864	-0.665147	-0.281173	0.048980	-0.730125	-0.236908	0.045661	-0.673633	-0.218143	0.034801	-0.681041	
